<svg xmlns="http://www.w3.org/2000/svg" version="1.1" xmlns:xlink="http://www.w3.org/1999/xlink" width="2000" height="1500" viewBox="0 0 2000 1500"><rect width="2000" height="1500" x="0" y="0" id="background" stroke="transparent" fill="#ffffff"></rect><svg xml:space="preserve" width="1500" height="1125" data-version="2" data-id="lg_MAEEJYJmi3Dnvi3H0t" viewBox="0 0 612 427" x="250" y="187.5"><rect width="100%" height="100%" fill="transparent"></rect><path fill="#484848" d="M11.865 359.642v-58.8h7.95v25.75h2.95q1.56 0 2.5-.37.95-.37 1.77-1.35l19.51-22.14q.9-.99 1.76-1.44.87-.45 2.18-.45h6.72l-22.38 25.34q-.82.9-1.6 1.56-.78.65-1.6 1.06 1.15.41 2.01 1.15.86.74 1.76 1.81l23.37 27.88h-6.89q-1.31 0-2.13-.45-.82-.45-1.48-1.27l-20.25-23.29q-1.07-1.15-1.85-1.52-.77-.37-2.74-.37h-3.61v26.9Zm38.37-52.15-1.72-2.71v-3.94h9.51l-6.64 6.4Zm1.64 52.15-3.93-7.46 4.83 1.06Zm-45.92 0v-3.37q0-.73.33-1.18.33-.46.98-.54l6.15-1.31.91 6.4Zm11.48 0 .9-6.4 6.15 1.31q.66.08.99.54.33.45.33 1.18v3.37Zm-3.11-58.8-.91 6.4-6.15-1.31q-.65-.17-.98-.58-.33-.41-.33-1.15v-3.36Zm11.48 0v3.36q0 .74-.33 1.15-.33.41-.99.58l-6.15 1.31-.9-6.4Zm26.07 58.8.9-6.4 6.15 1.31q.66.08.99.54.33.45.33 1.18v3.37Zm6.97-58.8v3.36q0 .74-.33 1.15-.32.41-.98.58l-6.15 1.31-.9-6.4Zm-9.59 0-.9 6.4-6.15-1.31q-.66-.17-.99-.58-.33-.41-.33-1.15v-3.36Z"></path><rect width="54.29" height="58.8" x="-27.14" y="-29.4" fill="none" rx="0" ry="0" transform="translate(33.6 330.74)"></rect><path fill="#484848" d="M69.915 359.642v-58.8h36.25v6.48h-28.21v19.6h21.65v6.23h-21.65v20.01h28.21v6.48Zm29.52-4.43 1.23-8.2q.17-.74.62-1.03.45-.28 1.1-.28h3.78v7.46Zm0-49.94 6.73 2.05v7.46h-3.78q-.65 0-1.1-.28-.45-.29-.62-1.03Zm-27.06-4.43-.9 6.4-6.15-1.31q-.66-.17-.98-.58-.33-.41-.33-1.15v-3.36Zm-8.36 58.8v-3.37q0-.73.33-1.18.32-.46.98-.54l6.15-1.31.9 6.4Z"></path><rect width="42.15" height="58.8" x="-21.07" y="-29.4" fill="none" rx="0" ry="0" transform="translate(85.59 330.74)"></rect><path fill="#484848" d="M118.465 359.642v-58.8h4.1q1.06 0 1.64.25.57.24 1.14 1.15l34.03 44.28q-.16-1.07-.2-2.09-.04-1.03-.04-1.93v-41.66h6.97v58.8h-4.02q-.9 0-1.52-.33-.61-.33-1.27-1.15l-34.03-44.2q.08.99.12 1.97.05.99.05 1.81v41.9Zm-5.91 0v-3.37q0-.73.33-1.18.33-.46.98-.54l6.15-1.31.91 6.4Zm11.24 0 .9-6.4 6.15 1.31q.65.08.98.54.33.45.33 1.18v3.37Zm-2.87-58.8-.91 6.4-6.15-1.31q-.65-.17-.98-.58-.33-.41-.33-1.15v-3.36Zm39.85 0-.9 6.4-6.15-1.31q-.66-.17-.99-.58-.33-.41-.33-1.15v-3.36Zm11.23 0v3.36q0 .74-.33 1.15-.32.41-.98.58l-6.15 1.31-.9-6.4Z"></path><rect width="59.45" height="58.8" x="-29.73" y="-29.4" fill="none" rx="0" ry="0" transform="translate(142.78 330.74)"></rect><path fill="#484848" d="M183.405 359.642v-58.8h4.1q1.07 0 1.64.25.57.24 1.15 1.15l34.03 44.28q-.17-1.07-.21-2.09-.04-1.03-.04-1.93v-41.66h6.97v58.8h-4.02q-.9 0-1.51-.33-.62-.33-1.27-1.15l-34.03-44.2q.08.99.12 1.97.04.99.04 1.81v41.9Zm-5.9 0v-3.37q0-.73.32-1.18.33-.46.99-.54l6.15-1.31.9 6.4Zm11.23 0 .9-6.4 6.15 1.31q.66.08.99.54.32.45.32 1.18v3.37Zm-2.87-58.8-.9 6.4-6.15-1.31q-.66-.17-.99-.58-.32-.41-.32-1.15v-3.36Zm39.85 0-.9 6.4-6.15-1.31q-.66-.17-.98-.58-.33-.41-.33-1.15v-3.36Zm11.24 0v3.36q0 .74-.33 1.15-.33.41-.99.58l-6.15 1.31-.9-6.4Z"></path><rect width="59.45" height="58.8" x="-29.73" y="-29.4" fill="none" rx="0" ry="0" transform="translate(207.73 330.74)"></rect><path fill="#484848" d="M264.665 359.642v-23.37l-21.56-35.43h6.97q1.06 0 1.68.54.61.53 1.1 1.35l13.45 22.79q.9 1.48 1.4 2.75.49 1.27.98 2.5.41-1.31.94-2.58.54-1.27 1.36-2.67l13.44-22.79q.41-.66 1.03-1.27.61-.62 1.6-.62h7.05l-21.57 35.43v23.37Zm-15.99-54.37v-4.43h6.15v4.43Zm32.39 0v-4.43h8.28v4.43Zm-31.9-4.43-.9 6.4-6.15-1.31q-.65-.17-.98-.58-.33-.41-.33-1.15v-3.36Zm12.63 0v3.36q0 .74-.33 1.15-.32.41-.98.58l-6.15 1.31-.9-6.4Zm21.9 0-.91 6.4-6.15-1.31q-.65-.17-.98-.58-.33-.41-.33-1.15v-3.36Zm12.62 0v3.36q0 .74-.32 1.15-.33.41-.99.58l-6.15 1.31-.9-6.4Zm-37.55 58.8v-3.37q0-.73.33-1.18.32-.46.98-.54l6.15-1.31.9 6.4Zm11.31 0 .91-6.4 6.15 1.31q.65.08.98.54.33.45.33 1.18v3.37Z"></path><rect width="55.51" height="58.8" x="-27.75" y="-29.4" fill="none" rx="0" ry="0" transform="translate(269.06 330.74)"></rect><path fill="#484848" d="m346.585 359.642-23.94-58.8h6.39q1.07 0 1.72.54.66.53.99 1.35l16.56 41.49q.58 1.39 1.07 3.03.49 1.64.9 3.37.41-1.73.82-3.37.41-1.64.98-3.03l16.57-41.49q.24-.66.94-1.27.7-.62 1.76-.62h6.4l-23.94 58.8Zm-18.94-56.75v-2.05h6.15v2.05Zm39.44 0v-2.05h6.15v2.05Zm-38.95-2.05-.9 6.4-6.15-1.31q-.66-.17-.99-.58-.32-.41-.32-1.15v-3.36Zm11.23 0v3.36q0 .74-.32 1.15-.33.41-.99.58l-6.15 1.31-.9-6.4Zm30.02 0-.91 6.4-6.15-1.31q-.65-.17-.98-.58-.33-.41-.33-1.15v-3.36Zm11.23 0v3.36q0 .74-.33 1.15-.33.41-.98.58l-6.15 1.31-.9-6.4Z"></path><rect width="60.84" height="58.8" x="-30.42" y="-29.4" fill="none" rx="0" ry="0" transform="translate(350.7 330.74)"></rect><path fill="#484848" d="M390.295 359.642v-58.8h36.24v6.48h-28.21v19.6h21.65v6.23h-21.65v20.01h28.21v6.48Zm29.52-4.43 1.23-8.2q.16-.74.61-1.03.45-.28 1.11-.28h3.77v7.46Zm0-49.94 6.72 2.05v7.46h-3.77q-.66 0-1.11-.28-.45-.29-.61-1.03Zm-27.06-4.43-.91 6.4-6.15-1.31q-.65-.17-.98-.58-.33-.41-.33-1.15v-3.36Zm-8.37 58.8v-3.37q0-.73.33-1.18.33-.46.98-.54l6.15-1.31.91 6.4Z"></path><rect width="42.15" height="58.8" x="-21.07" y="-29.4" fill="none" rx="0" ry="0" transform="translate(405.96 330.74)"></rect><path fill="#484848" d="M462.695 360.292q-6.48 0-12.09-2.01-5.62-2.01-9.72-6.27-3.85-4.02-6.03-9.63-2.17-5.62-2.17-12.26 0-6.56 2.13-12.1 2.13-5.53 6.07-9.55 3.85-3.94 9.43-6.11 5.58-2.17 12.46-2.17 3.69 0 7.14.57 3.44.57 6.84 1.56 3.41.98 6.85 2.21v5.99l-6.31-1.15q-2.87-.9-6.32-1.64-3.44-.74-7.62-.74-7.22 0-12.26 2.91t-7.67 8.16q-2.62 5.25-2.62 12.3 0 7.14 2.66 12.38 2.67 5.25 7.67 8.16t11.97 2.91q3.94 0 7.38-.94 3.45-.94 6.4-2.5v-12.87h-9.1q-.74 0-1.23-.45-.5-.46-.5-1.11v-4.51h18.04v22.47q-3.85 2.95-9.47 4.67-5.61 1.72-11.93 1.72m14.19-51.82 6.72 2.05v7.46h-3.77q-.66 0-1.11-.29-.45-.28-.61-1.02Z"></path><rect width="51.41" height="60.1" x="-25.7" y="-30.05" fill="none" rx="0" ry="0" transform="translate(458.89 330.74)"></rect><path fill="#484848" d="M498.855 359.642v-58.8h7.96v58.8Zm-5.9 0v-3.37q0-.73.33-1.18.33-.46.98-.54l6.15-1.31.9 6.4Zm11.48 0 .9-6.4 6.15 1.31q.66.08.99.54.32.45.32 1.18v3.37Zm-3.12-58.8-.9 6.4-6.15-1.31q-.65-.17-.98-.58-.33-.41-.33-1.15v-3.36Zm11.48 0v3.36q0 .74-.32 1.15-.33.41-.99.58l-6.15 1.31-.9-6.4Z"></path><rect width="19.84" height="58.8" x="-9.92" y="-29.4" fill="none" rx="0" ry="0" transform="translate(503.38 330.74)"></rect><path fill="#484848" d="M524.115 359.642v-58.8h36.24v6.48h-28.2v19.6h21.64v6.23h-21.64v20.01h28.2v6.48Zm29.52-4.43 1.23-8.2q.16-.74.61-1.03.46-.28 1.11-.28h3.77v7.46Zm0-49.94 6.72 2.05v7.46h-3.77q-.65 0-1.11-.28-.45-.29-.61-1.03Zm-27.06-4.43-.9 6.4-6.15-1.31q-.66-.17-.99-.58-.32-.41-.32-1.15v-3.36Zm-8.36 58.8v-3.37q0-.73.32-1.18.33-.46.99-.54l6.15-1.31.9 6.4Z"></path><rect width="42.14" height="58.8" x="-21.07" y="-29.4" fill="none" rx="0" ry="0" transform="translate(539.78 330.74)"></rect><path fill="#484848" d="M584.955 360.292q-3.11 0-6.35-.53-3.24-.53-5.99-1.27-2.74-.74-4.38-1.31v-7.3l6.31 1.56q3.36 1.23 5.7 1.72 2.34.49 5.37.49 3.69 0 6.35-1.31 2.67-1.31 4.15-3.69 1.47-2.38 1.47-5.41 0-2.87-1.23-4.68-1.23-1.8-3.28-2.91-2.05-1.1-4.55-1.88-2.5-.78-5.12-1.69-3.37-1.14-6.61-2.87-3.23-1.72-5.28-4.63-2.05-2.91-2.05-7.75t2.25-8.61q2.26-3.77 6.36-5.9 4.1-2.13 9.67-2.13 3.53 0 7.83.86 4.31.86 8.16 2.5v6.07l-6.23-1.23q-2.62-.74-5.21-1.15-2.58-.41-4.55-.41-5 0-7.95 2.5t-2.95 6.44q0 3.44 2.09 5.33 2.09 1.88 5.33 3.03t6.68 2.38q3.85 1.31 7.05 3.11 3.2 1.81 5.13 4.72 1.92 2.91 1.92 7.75 0 5.16-2.42 9.31-2.41 4.14-6.88 6.52-4.47 2.37-10.79 2.37m12.06-52.72 6.72 2.05v7.46h-3.77q-.66 0-1.11-.29-.45-.29-.61-1.02Zm-22.06 44.36-6.72-2.05v-7.46h3.77q.65 0 1.15.28.49.29.57 1.03Z"></path><rect width="36.81" height="60.1" x="-18.41" y="-30.05" fill="none" rx="0" ry="0" transform="translate(587.14 330.74)"></rect><path fill="#484848" d="M147.705 388.012h19l-.26 1.3h-8.74l-5.06 25.3h-1.44l5.02-25.3h-8.78Z"></path><rect width="19.26" height="26.6" x="-9.63" y="-13.3" fill="none" rx="0" ry="0" transform="translate(157.57 401.81)"></rect><path fill="#484848" d="M171.765 387.252h1.4l-2.5 12.66q1.21-2.24 3.24-3.4 2.04-1.16 4.43-1.16 2.09 0 3.55.89 1.47.89 2.04 2.79.57 1.9-.04 4.87l-2.13 10.71h-1.44l2.09-10.67q.72-3.54-.46-5.42t-4.1-1.88q-2.97 0-5.17 2.11-2.2 2.11-3 6.17l-1.94 9.69h-1.41Z"></path><rect width="18.02" height="27.36" x="-9.01" y="-13.68" fill="none" rx="0" ry="0" transform="translate(175.84 401.43)"></rect><path fill="#484848" d="M195.245 414.882q-2.62 0-4.35-1.27-1.73-1.28-2.39-3.52-.67-2.24-.1-5.17.53-2.81 2.09-4.97 1.56-2.17 3.8-3.39 2.24-1.21 4.79-1.21 2.51 0 4.22 1.1t2.45 2.98q.74 1.88.21 4.32-.04.3-.12.74-.07.43-.22.89h-15.85q-.42 2.43.15 4.28.57 1.84 2.02 2.88 1.44 1.05 3.53 1.05 2.55 0 4.62-1.12 2.07-1.12 3.32-3.18l1.07.5q-1.49 2.43-3.9 3.76-2.41 1.33-5.34 1.33m9.2-10.72q.49-2.2-.06-3.89t-1.98-2.66q-1.42-.97-3.59-.97-2.01 0-3.82.97-1.8.97-3.11 2.68-1.31 1.71-1.84 3.87Z"></path><rect width="18.35" height="19.53" x="-9.18" y="-9.77" fill="none" rx="0" ry="0" transform="translate(197.66 405.62)"></rect><path fill="#484848" d="M224.625 414.612h-1.18l-2.24-19h1.44l1.82 16.99 9.62-16.99h1.18l2.88 16.95 8.52-16.95h1.4l-9.69 19h-1.25l-2.93-16.75Z"></path><rect width="26.86" height="19" x="-13.43" y="-9.5" fill="none" rx="0" ry="0" transform="translate(235.13 405.61)"></rect><path fill="#484848" d="m260.755 414.612.92-4.75q-1.22 2.44-3.33 3.73-2.11 1.29-4.96 1.29-2.05 0-3.38-.61t-1.86-1.76q-.53-1.16-.19-2.8.45-2.39 2.52-3.84 2.08-1.44 5.88-1.82l6.61-.72.34-1.71q.49-2.4-.72-3.69-1.22-1.29-3.84-1.29-2.55 0-4.39 1.16-1.84 1.16-2.79 3.32l-1.18-.45q1.22-2.59 3.4-3.95 2.19-1.37 5.19-1.37 3.34 0 4.84 1.61 1.5 1.62.93 4.51l-2.66 13.14Zm1.98-10.03-6.69.72q-3.11.31-4.71 1.39-1.6 1.08-1.94 2.95-.38 1.9.7 2.96 1.09 1.06 3.52 1.06 2.36 0 4.16-.96 1.81-.97 3-2.7 1.2-1.73 1.66-4.09Z"></path><rect width="17.38" height="19.53" x="-8.69" y="-9.77" fill="none" rx="0" ry="0" transform="translate(256.9 405.62)"></rect><path fill="#484848" d="M284.545 395.612h1.41l-15.77 26.6h-1.41l4.56-7.67-4.25-18.93h1.48l3.84 17.29Z"></path><rect width="17.18" height="26.6" x="-8.59" y="-13.3" fill="none" rx="0" ry="0" transform="translate(277.87 409.41)"></rect><path fill="#484848" d="M313.655 395.612h1.41l-15.77 26.6h-1.41l4.56-7.67-4.26-18.93h1.49l3.83 17.29Z"></path><rect width="17.18" height="26.6" x="-8.59" y="-13.3" fill="none" rx="0" ry="0" transform="translate(306.98 409.41)"></rect><path fill="#484848" d="M322.775 414.882q-2.66 0-4.5-1.18-1.85-1.18-2.61-3.36-.76-2.19-.15-5.23.61-3 2.24-5.2 1.64-2.21 3.96-3.38 2.31-1.18 4.94-1.18 2.66 0 4.48 1.18 1.82 1.17 2.58 3.38.76 2.2.16 5.2-.61 3.04-2.23 5.23-1.61 2.18-3.93 3.36-2.32 1.18-4.94 1.18m.23-1.29q2.01 0 3.95-.91 1.94-.92 3.42-2.8t2.05-4.77q.57-2.92-.15-4.78-.72-1.87-2.3-2.78-1.58-.91-3.59-.91t-3.95.91q-1.94.91-3.4 2.8-1.47 1.88-2.04 4.76-.57 2.93.16 4.79.72 1.86 2.28 2.78 1.55.91 3.57.91"></path><rect width="19.23" height="19.53" x="-9.62" y="-9.77" fill="none" rx="0" ry="0" transform="translate(325.19 405.62)"></rect><path fill="#484848" d="M352.115 414.612h-1.3l.76-4.14q-1.1 2.09-3 3.25-1.9 1.16-4.56 1.16-2.09 0-3.57-.87-1.48-.88-2.07-2.72-.59-1.84-.02-4.73l2.2-10.95h1.37l-2.16 10.91q-.73 3.53.51 5.3 1.23 1.77 4.12 1.77 3.04 0 5.17-1.94t2.96-6l1.98-10.04h1.41Z"></path><rect width="17.98" height="19.27" x="-8.99" y="-9.63" fill="none" rx="0" ry="0" transform="translate(347.42 405.75)"></rect><path fill="#484848" d="M374.415 387.482h1.41l-5.4 27.13h-1.4Z"></path><rect width="6.8" height="27.13" x="-3.4" y="-13.56" fill="none" rx="0" ry="0" transform="translate(372.93 401.55)"></rect><path fill="#484848" d="M384.635 414.882q-2.66 0-4.5-1.18-1.84-1.18-2.6-3.36-.76-2.19-.15-5.23.6-3 2.24-5.2 1.63-2.21 3.95-3.38 2.32-1.18 4.94-1.18 2.66 0 4.48 1.18 1.83 1.17 2.59 3.38.76 2.2.15 5.2-.61 3.04-2.22 5.23-1.62 2.18-3.94 3.36-2.31 1.18-4.94 1.18m.23-1.29q2.02 0 3.95-.91 1.94-.92 3.42-2.8 1.49-1.88 2.06-4.77.57-2.92-.16-4.78-.72-1.87-2.3-2.78-1.57-.91-3.59-.91-2.01 0-3.95.91-1.94.91-3.4 2.8-1.46 1.88-2.03 4.76-.57 2.93.15 4.79.72 1.86 2.28 2.78 1.56.91 3.57.91"></path><rect width="19.23" height="19.53" x="-9.62" y="-9.77" fill="none" rx="0" ry="0" transform="translate(387.06 405.62)"></rect><path fill="#484848" d="m401.735 395.612 3.69 17.22 10.53-17.22h1.48l-11.71 19h-1.33l-4.18-19Z"></path><rect width="17.22" height="19" x="-8.61" y="-9.5" fill="none" rx="0" ry="0" transform="translate(409.32 405.61)"></rect><path fill="#484848" d="M424.995 414.882q-2.62 0-4.35-1.27-1.73-1.28-2.4-3.52-.66-2.24-.09-5.17.53-2.81 2.09-4.97 1.56-2.17 3.8-3.39 2.24-1.21 4.79-1.21 2.51 0 4.22 1.1t2.45 2.98q.74 1.88.21 4.32-.04.3-.12.74-.07.43-.23.89h-15.84q-.42 2.43.15 4.28.57 1.84 2.01 2.88 1.45 1.05 3.54 1.05 2.54 0 4.61-1.12 2.08-1.12 3.33-3.18l1.06.5q-1.48 2.43-3.89 3.76-2.41 1.33-5.34 1.33m9.2-10.72q.49-2.2-.06-3.89t-1.98-2.66q-1.42-.97-3.59-.97-2.01 0-3.82.97-1.8.97-3.11 2.68-1.31 1.71-1.85 3.87Z"></path><rect width="18.35" height="19.53" x="-9.18" y="-9.77" fill="none" rx="0" ry="0" transform="translate(427.41 405.62)"></rect><path fill="#484848" d="M453.535 395.612h1.37l-3.77 19h-1.36Zm1.63-4.75q-.45 0-.74-.32-.28-.32-.21-.85.15-.54.55-.86.4-.32.9-.32.45 0 .74.32.28.32.13.86-.08.53-.48.85-.39.32-.89.32"></path><rect width="6.86" height="26.1" x="-3.43" y="-13.05" fill="none" rx="0" ry="0" transform="translate(453.7 402.06)"></rect><path fill="#484848" d="m462.995 395.612 1.06-5.32h1.41l-1.06 5.32h5.66l-.27 1.3h-5.66l-2.47 12.31q-.3 1.63.3 2.64.61 1.01 1.85 1.39 1.23.38 2.71.07l-.22 1.18q-1.37.34-2.61.15-1.23-.19-2.11-.87-.87-.69-1.25-1.83-.38-1.14-.04-2.73l2.43-12.31h-3.04l.27-1.3Z"></path><rect width="10.38" height="24.49" x="-5.19" y="-12.24" fill="none" rx="0" ry="0" transform="translate(465.38 403.04)"></rect><circle r="136.13" fill="#ffffff" stroke="#484848" stroke-width="11" paint-order="stroke" transform="translate(306.04 145.42)"></circle><path fill="#484848" d="M396.94 152.966c0-21.579-17.553-39.131-39.13-39.131-1.63 0-3.227.126-4.802.322-3.99-12.33-16.344-32.192-40.49-28.785l-4.823.685-.127 4.862c-.22 8.167 3.735 17.236 10.586 24.272 4.003 4.116 8.624 7.133 13.373 8.865a39.089 39.089 0 0 0-10.726 16.465h-34.883v5.774c0 .554.073 1.1.098 1.651a39.685 39.685 0 0 0-4.026-5.503l.225-4.701c3.548-1.782 6.953-4.274 9.997-7.398 6.85-7.044 10.804-16.105 10.586-24.272l-.127-4.862-4.82-.69c-5.177-.724-9.777-.338-13.902.766l1.964-41.277a5.812 5.812 0 0 0-1.588-4.262 5.768 5.768 0 0 0-4.176-1.784H216.67a5.764 5.764 0 0 0-5.766 6.046l4.558 95.723a38.957 38.957 0 0 0-2.037 12.381c0 2.413.287 4.751.71 7.036h-9.006l.263 11.539c2.238 21.095 19.039 37.898 40.128 40.134l109.647.052c21.425-1.93 38.582-18.855 40.85-40.186l.508-11.54h-6.606c4.39-6.318 7.02-13.927 7.02-22.182m-81.3 18.651 10.672-10.672v13.776a38.985 38.985 0 0 1-10.673-3.104m33.407-.201a38.934 38.934 0 0 1-11.196 3.305v-14.5zm-3.038-19.35h20.002c-1.159 4.74-3.762 9.048-7.352 12.637zm-19.586-44.924c-3.082-3.165-5.353-6.909-6.489-10.534 11.664 1.051 17.886 11.12 20.714 17.58-.037.003-.07.003-.104.003-4.546-.002-9.824-2.639-14.121-7.049m31.388 18.23c15.216 0 27.592 12.376 27.592 27.592 0 9.118-4.502 17.15-11.342 22.18h-9.73c8.573-7.334 13.915-17.55 13.915-28.853v-5.774h-44.883c4.553-8.948 13.74-15.145 24.448-15.145m-38.94 26.694-13.023 13.03c-3.785-3.664-6.49-8.125-7.694-13.03zm-19.031 23.08h-8.862c.42-2.284.712-4.622.712-7.035 0-.842-.084-1.663-.136-2.5 2.208 3.534 5.018 6.741 8.286 9.536m-71.896 0h-1.928c-.62-2.255-1.05-4.582-1.05-7.035 0-15.21 12.378-27.592 27.59-27.592s27.593 12.382 27.593 27.592c0 2.453-.438 4.78-1.053 7.036h-45.112zm55.995-52.86c-4.293 4.417-9.575 7.056-14.12 7.056-.034 0-.066 0-.099-.007 2.822-6.464 9.046-16.529 20.717-17.583-1.145 3.632-3.414 7.373-6.498 10.534m-26.581 7.022a38.17 38.17 0 0 0-4.801-.33c-10.143 0-19.363 3.915-26.326 10.262l-2.052-43.144c3.8-2.275 9.987-4.849 15.772-2.244 12.757 5.743 25.342 6.222 32.499 6.264l-.346 7.17c-7.814 6.211-12.554 15.241-14.746 22.022m16.735-63.802-1.097 23.077c-6.521-.025-17.391-.344-28.317-5.262-7.756-3.48-15.29-2.144-21.097.221l-.86-18.036zm-57.422 86.56h.24c-.079.165-.165.315-.24.484zm134.405 63.47H250.332c-16.923 0-30.933-12.565-33.28-28.85H384.36c-2.346 16.285-16.357 28.85-33.283 28.85"></path></svg></svg>